<?xml version="1.0" standalone="no"?>
<!DOCTYPE svg PUBLIC "-//W3C//DTD SVG 20010904//EN"
 "http://www.w3.org/TR/2001/REC-SVG-20010904/DTD/svg10.dtd">
<svg version="1.0" xmlns="http://www.w3.org/2000/svg"
 width="192.000000pt" height="192.000000pt" viewBox="0 0 192.000000 192.000000"
 preserveAspectRatio="xMidYMid meet">

<g transform="translate(0.000000,192.000000) scale(0.100000,-0.100000)"
fill="#000000" stroke="none">
<path d="M0 960 l0 -960 192 0 191 0 -6 87 c-4 54 -11 89 -19 95 -10 6 -9 8 4
8 18 0 23 -18 33 -122 l7 -68 430 0 429 0 -2 52 c-2 33 1 53 9 56 8 2 12 -13
12 -52 l0 -56 194 0 194 0 10 44 c5 24 9 65 8 90 -1 47 6 56 47 56 31 0 43 11
51 44 6 26 6 27 -9 12 -25 -24 -173 -17 -182 9 -2 7 35 10 103 8 92 -1 105 0
100 14 -5 12 -2 13 11 7 10 -4 40 -9 67 -12 l48 -4 -6 248 c-3 137 -7 269 -10
294 -4 40 -4 41 3 10 6 -24 9 13 10 113 1 92 -3 147 -9 147 -5 0 -10 -10 -10
-22 0 -19 -2 -20 -10 -8 -5 8 -10 24 -10 35 0 11 -16 53 -35 93 -47 98 -35 92
15 -8 22 -44 45 -80 50 -80 6 0 10 32 10 75 0 74 0 75 -32 92 -31 16 -31 18
-10 21 12 2 22 8 22 13 0 6 5 7 10 4 6 -3 10 1 10 9 0 9 -5 15 -11 14 -7 -2
-12 31 -14 97 -3 116 -3 115 -13 115 -4 0 -6 -18 -4 -40 4 -38 3 -40 -23 -40
-27 0 -31 -20 -5 -28 7 -3 10 0 6 7 -4 6 -2 11 4 11 10 0 5 -36 -6 -49 -9 -10
-43 34 -50 63 -3 17 -13 40 -20 51 -21 29 -17 36 16 30 17 -3 30 -1 30 5 0 5
-7 10 -16 10 -10 0 -14 6 -10 15 3 8 1 15 -5 15 -16 0 -6 62 13 74 13 8 22 6
37 -8 21 -19 21 -19 21 22 0 29 6 47 21 61 14 13 19 26 15 39 -4 11 -2 23 4
27 5 3 10 17 10 31 0 22 -4 24 -52 24 -29 0 -152 2 -273 5 -121 2 -230 1 -242
-2 -20 -5 -23 -11 -23 -58 0 -30 -5 -57 -10 -60 -7 -5 -10 17 -8 67 l3 73 303
3 c294 2 302 3 302 22 0 20 -8 20 -367 20 l-368 0 3 -281 c2 -255 1 -281 -14
-275 -8 3 -18 6 -20 6 -3 0 -2 5 1 10 10 16 -12 12 -47 -10 -47 -28 -65 -25
-77 13 -17 56 -18 71 -3 101 14 28 13 29 -10 21 -12 -4 -36 -9 -53 -12 -28 -5
-29 -4 -11 9 10 8 16 20 12 26 -4 6 0 24 8 40 8 16 13 32 9 35 -3 3 -7 21 -8
39 -2 18 -3 39 -4 46 -1 6 -7 12 -14 12 -7 0 -13 9 -13 20 0 11 5 20 11 20 19
0 74 -39 91 -65 11 -18 24 -25 36 -22 14 4 18 -1 18 -19 0 -13 5 -24 11 -24 6
0 8 9 4 21 -5 15 -4 19 4 15 6 -4 11 -13 11 -21 0 -20 -30 -46 -43 -38 -6 4
-8 0 -4 -10 3 -9 1 -31 -5 -48 -9 -28 -8 -34 8 -46 10 -8 24 -28 30 -45 5 -17
17 -32 26 -34 14 -2 17 17 22 130 4 72 5 188 4 258 l-3 128 -250 0 -251 0 4
-96 c4 -79 2 -96 -9 -92 -11 4 -13 26 -11 97 2 86 1 91 -18 91 -19 0 -20 -6
-20 -90 0 -65 -3 -90 -12 -90 -10 0 -12 23 -10 90 l3 90 -260 0 -261 0 0 -141
c0 -77 -5 -161 -12 -187 -9 -35 -9 -47 0 -50 8 -2 12 -39 12 -117 0 -107 1
-113 22 -118 30 -8 38 -1 38 39 0 23 5 34 15 34 16 0 35 -30 35 -54 0 -17 -30
-56 -42 -56 -21 0 -87 -52 -92 -72 -3 -13 -3 145 0 350 l4 372 -25 0 -25 0 0
-960z m356 904 c0 -30 5 -41 22 -49 13 -5 24 -19 27 -30 24 -131 32 -226 19
-212 -4 4 -11 28 -16 54 -4 27 -12 66 -16 88 -9 39 -9 39 -17 12 -4 -16 -3
-32 3 -40 14 -17 16 -68 6 -187 -4 -52 -8 -116 -8 -142 -1 -44 -2 -46 -29 -46
-33 1 -34 2 -38 52 -3 25 1 41 9 44 8 2 12 -9 12 -38 0 -25 4 -39 10 -35 6 4
10 64 10 147 0 120 -2 139 -15 134 -8 -3 -15 0 -15 6 0 6 -7 19 -15 28 -11 12
-13 24 -7 41 5 13 5 38 1 54 l-7 30 -2 -35 c-2 -46 -14 -77 -24 -62 -7 12 2
104 13 118 3 5 15 14 26 20 15 8 19 19 17 42 -2 18 0 36 3 42 14 22 30 2 31
-36z m567 -3 c-1 -22 2 -41 6 -41 4 0 -11 -19 -33 -43 -40 -41 -66 -111 -66
-175 0 -12 -4 -22 -10 -22 -15 0 -12 57 5 123 8 32 15 67 15 78 0 11 11 24 26
31 22 10 25 16 19 46 -4 24 -2 38 7 43 23 15 33 3 31 -40z m-760 2 c-7 -2 -19
-2 -25 0 -7 3 -2 5 12 5 14 0 19 -2 13 -5z m370 -17 c9 -23 -15 -25 -48 -5
l-30 19 36 0 c23 0 39 -6 42 -14z m-382 -6 c10 -6 19 -19 19 -30 0 -10 6 -21
13 -23 6 -3 -4 -4 -23 -2 -19 2 -38 4 -42 4 -12 1 -9 61 3 61 6 0 19 -5 30
-10z m1242 -7 c-7 -2 -21 -2 -30 0 -10 3 -4 5 12 5 17 0 24 -2 18 -5z m74 1
c-3 -3 -12 -4 -19 -1 -8 3 -5 6 6 6 11 1 17 -2 13 -5z m66 -70 c-3 -8 3 -21
13 -29 21 -15 48 -143 34 -158 -4 -5 -11 14 -15 42 -4 28 -11 51 -17 51 -6 0
-7 -11 -3 -27 8 -33 8 -141 -1 -200 -3 -23 -1 -49 5 -60 10 -17 10 -17 11 0 0
12 8 17 30 17 24 0 30 -4 30 -22 0 -13 3 -33 6 -45 4 -16 1 -25 -10 -29 -17
-7 -152 41 -162 58 -4 7 0 7 12 0 11 -5 33 -10 49 -9 17 0 24 2 18 4 -9 3 -13
38 -14 121 l-2 117 -8 -75 c-5 -41 -6 -95 -3 -119 5 -40 4 -44 -10 -32 -9 8
-16 26 -16 41 0 19 -7 30 -24 38 -18 8 -27 22 -31 49 -4 21 -15 50 -25 64 -22
30 -16 43 11 28 14 -7 19 -6 19 3 0 9 3 9 10 -2 6 -9 10 -10 10 -3 0 7 -8 17
-17 23 -15 9 -13 10 12 5 22 -4 26 -3 15 5 -8 5 -23 10 -32 10 -10 0 -18 7
-18 16 0 30 20 54 46 54 16 0 23 4 18 12 -4 6 1 17 11 24 11 8 15 19 11 30 -3
9 -1 23 6 31 10 13 14 13 24 -2 7 -9 10 -23 7 -31z m167 6 c0 -20 6 -31 20
-35 15 -5 20 -15 20 -38 0 -24 -3 -28 -10 -17 -9 13 -10 13 -10 -1 0 -8 -13
-25 -29 -37 -16 -12 -31 -30 -34 -39 -2 -10 -3 5 -1 32 4 57 0 52 -20 -25 -12
-44 -15 -49 -15 -24 -1 54 19 138 35 151 10 7 14 19 10 29 -7 18 11 47 25 38
5 -3 9 -18 9 -34z m-1167 13 c-13 -2 -35 -2 -50 0 -16 2 -5 4 22 4 28 0 40 -2
28 -4z m7 -33 c0 -21 -27 -40 -59 -40 -23 0 -24 3 -15 38 5 17 14 22 40 22 27
0 34 -4 34 -20z m-352 3 c-10 -2 -26 -2 -35 0 -10 3 -2 5 17 5 19 0 27 -2 18
-5z m8 -43 c0 -13 -7 -20 -19 -20 -10 0 -28 -5 -39 -11 -13 -7 -18 -7 -14 -1
3 6 2 13 -4 17 -17 10 -11 25 10 25 11 0 20 -4 20 -10 0 -5 5 -10 11 -10 6 0
9 7 5 15 -3 10 1 15 12 15 11 0 18 -8 18 -20z m544 -85 c5 -13 12 -48 14 -77
l6 -53 -16 57 c-9 32 -20 55 -25 52 -5 -3 -9 1 -9 8 0 8 -6 23 -14 33 -12 16
-16 17 -30 6 -17 -14 -56 -6 -40 8 29 28 98 8 114 -34z m148 -162 c4 -115 2
-133 -11 -133 -12 0 -17 17 -22 74 -4 41 -4 79 -1 85 4 5 2 31 -4 58 -6 26 -8
64 -5 83 l7 35 15 -35 c10 -23 17 -80 21 -167z m29 121 c-9 -10 -27 15 -21 31
7 17 8 16 16 -5 5 -13 7 -24 5 -26z m-267 21 c7 -8 18 -15 25 -15 6 0 11 -10
11 -22 -1 -14 4 -22 12 -20 8 1 11 -2 7 -8 -3 -5 -13 -10 -21 -10 -8 0 -14
-10 -14 -22 -1 -29 -29 -82 -30 -55 0 16 -3 16 -36 2 -49 -20 -71 -20 -54 0
16 19 6 45 -17 46 -10 1 -4 4 12 8 28 6 30 9 30 51 0 36 4 46 20 52 32 10 42
9 55 -7z m70 -31 c0 -8 -5 -12 -10 -9 -6 4 -8 11 -5 16 9 14 15 11 15 -7z
m-190 -29 c0 -18 -4 -23 -15 -19 -17 7 -17 7 -9 28 9 24 24 19 24 -9z m-360 5
c0 -5 -4 -10 -10 -10 -5 0 -10 5 -10 10 0 6 5 10 10 10 6 0 10 -4 10 -10z m0
-40 c0 -11 -4 -20 -10 -20 -5 0 -10 9 -10 20 0 11 5 20 10 20 6 0 10 -9 10
-20z m-60 -20 c0 -13 -5 -18 -14 -14 -8 3 -12 12 -9 20 8 21 23 17 23 -6z
m1572 -75 c-4 -99 -22 -90 -22 11 1 73 3 85 12 69 7 -11 11 -47 10 -80z m-737
25 c-6 -26 -4 -29 11 -23 12 4 15 2 12 -8 -3 -8 -11 -14 -19 -14 -8 0 -15 -10
-17 -22 -2 -12 -10 -24 -18 -27 -11 -4 -14 7 -14 59 0 63 1 65 26 65 23 0 25
-3 19 -30z m-415 -20 c17 0 20 -6 20 -45 0 -48 -9 -57 -66 -69 l-32 -7 2 75
c1 67 3 76 21 78 12 2 23 -4 27 -14 4 -10 17 -18 28 -18z m211 -40 c1 -3 3
-16 4 -30 l2 -24 -23 28 c-29 33 -30 25 -4 -29 11 -22 19 -46 20 -52 0 -7 5
-13 10 -13 6 0 10 -24 10 -52 0 -38 -3 -49 -10 -38 -9 13 -10 13 -10 0 0 -9 5
-21 11 -27 9 -9 7 -11 -8 -7 -17 5 -23 -1 -33 -30 -11 -36 -34 -48 -43 -23 -2
6 4 27 15 45 17 27 18 33 5 38 -9 3 -26 0 -39 -6 -22 -11 -22 -10 -4 4 11 9
28 16 38 16 10 0 18 5 18 10 0 6 7 10 16 10 18 0 13 22 -17 83 -16 30 -25 37
-49 37 -24 0 -29 4 -27 20 2 11 7 24 13 29 13 13 103 23 105 11z m-453 -25
c16 -34 17 -30 -24 -50 -30 -14 -38 -15 -45 -4 -13 21 -11 41 8 61 23 25 48
22 61 -7z m302 -21 c0 -8 -4 -14 -10 -14 -5 0 -10 9 -10 21 0 11 5 17 10 14 6
-3 10 -13 10 -21z m1208 -7 c3 -24 0 -27 -25 -27 -37 1 -68 23 -51 37 38 30
72 26 76 -10z m-641 -19 c21 -24 45 -43 53 -43 27 0 22 -26 -8 -37 -17 -7 -35
-22 -41 -35 -6 -13 -18 -26 -26 -29 -8 -4 -12 -10 -9 -15 9 -15 -6 -49 -21
-49 -25 0 -28 21 -6 44 12 12 21 31 21 42 0 11 11 31 25 44 34 32 31 52 -10
89 -20 17 -32 31 -27 31 5 0 27 -19 49 -42z m258 33 c7 -12 -12 -24 -25 -16
-11 7 -4 25 10 25 5 0 11 -4 15 -9z m-585 -21 c-8 -5 -24 -9 -35 -9 l-20 0 20
9 c11 5 27 9 35 9 13 1 13 0 0 -9z m470 -58 c5 -20 10 -82 11 -137 0 -55 4
-138 10 -185 16 -152 28 -293 31 -388 2 -50 6 -92 9 -92 7 0 19 -78 25 -160 1
-25 6 -75 10 -112 l7 -68 -32 0 c-26 0 -31 4 -31 24 0 14 4 36 10 50 6 17 6
26 0 26 -6 0 -10 21 -11 48 -1 54 -12 92 -22 75 -4 -6 -3 -23 3 -38 15 -38 13
-58 -5 -51 -8 3 -15 1 -15 -5 0 -6 -4 -8 -8 -5 -13 8 12 168 32 201 16 27 16
46 8 215 -6 102 -17 217 -26 255 -23 99 -32 205 -17 205 6 0 11 18 11 45 0 32
-4 45 -14 45 -17 0 -26 21 -26 59 0 54 24 50 40 -7z m237 24 c27 7 53 -11 53
-37 0 -14 -7 -19 -25 -19 -14 0 -25 -4 -25 -10 0 -5 -7 -10 -15 -10 -8 0 -15
-8 -15 -17 0 -16 -2 -16 -11 -3 -7 11 -9 2 -8 -35 2 -65 -1 -94 -8 -76 -4 9
-8 10 -12 2 -5 -7 -13 -4 -24 9 -9 11 -12 20 -7 20 6 0 10 18 10 40 0 24 4 39
11 38 6 -2 13 8 15 22 3 14 9 27 14 28 16 6 12 34 -7 56 -18 19 -18 19 6 3 15
-10 34 -14 48 -11z m-1116 -6 c-3 -8 -4 -89 -4 -180 0 -154 -1 -159 -9 -75
-11 114 -67 282 -65 193 1 -18 0 -55 -1 -82 l-2 -50 -30 29 c-18 17 -30 39
-30 53 0 38 47 112 70 112 11 0 20 5 20 11 0 6 12 9 28 7 18 -2 26 -8 23 -18z
m1299 5 c0 -3 -13 -32 -30 -65 -32 -63 -58 -92 -40 -44 13 32 7 54 -15 54 -8
0 -15 4 -15 10 0 6 9 6 25 0 22 -8 27 -6 40 20 13 26 35 41 35 25z m145 -41
c20 -25 35 -47 33 -49 -2 -3 -21 18 -41 45 -47 63 -42 65 8 4z m-1613 -63
c-32 -54 -59 -97 -61 -95 -6 5 104 194 113 194 2 0 -21 -44 -52 -99z m1540 60
c-10 -6 -4 -25 23 -82 19 -40 35 -68 35 -61 0 7 5 10 10 7 6 -3 10 -15 10 -26
0 -11 -4 -18 -9 -14 -6 3 -14 -2 -19 -11 -7 -13 -11 -7 -16 26 -3 23 -20 68
-36 100 -17 33 -30 61 -30 63 0 1 10 4 22 4 15 2 18 -1 10 -6z m-335 -33 c-3
-8 -6 -5 -6 6 -1 11 2 17 5 13 3 -3 4 -12 1 -19z m-1284 -33 c-19 -40 -49 -50
-37 -12 9 30 24 47 40 47 11 0 10 -7 -3 -35z m1257 11 c0 -3 -4 -8 -10 -11 -5
-3 -10 -1 -10 4 0 6 5 11 10 11 6 0 10 -2 10 -4z m-872 -76 c14 0 16 -16 3
-24 -8 -6 -71 66 -71 81 1 4 13 -7 29 -24 15 -18 33 -33 39 -33z m-511 13 c-3
-10 -5 -4 -5 12 0 17 2 24 5 18 2 -7 2 -21 0 -30z m830 5 c-3 -8 -6 -5 -6 6
-1 11 2 17 5 13 3 -3 4 -12 1 -19z m93 2 c0 -5 -5 -10 -11 -10 -5 0 -7 5 -4
10 3 6 8 10 11 10 2 0 4 -4 4 -10z m-682 -7 c-2 -5 -10 -20 -17 -35 -12 -23
-11 -30 7 -56 12 -16 19 -32 15 -35 -3 -4 -7 -23 -9 -44 -2 -21 -6 -48 -9 -60
-3 -12 4 -63 15 -113 22 -98 26 -155 10 -145 -5 3 -10 13 -10 21 0 8 -9 24
-19 36 -14 15 -18 29 -14 49 4 19 1 29 -7 29 -8 0 -9 10 -5 30 5 21 3 30 -6
30 -9 0 -10 -20 -6 -77 5 -60 4 -71 -4 -48 -14 41 -15 254 -2 285 9 20 10 7 8
-60 -2 -47 -2 -75 1 -62 3 12 12 22 20 22 10 0 13 7 8 24 -3 13 1 39 9 58 12
30 12 37 0 54 -12 16 -15 17 -24 4 -9 -13 -10 -13 -8 0 1 8 -1 27 -5 43 -10
32 6 57 36 57 11 0 18 -3 16 -7z m910 -5 c-3 -7 -28 -31 -56 -53 -28 -22 -53
-47 -56 -55 -2 -8 -7 -51 -10 -95 -3 -48 -2 -66 3 -45 l7 35 8 -30 c46 -172
54 -211 46 -219 -11 -11 -30 1 -30 22 -1 9 -12 37 -25 62 l-24 45 -1 -67 c0
-37 -4 -70 -10 -73 -16 -10 -12 177 5 285 l16 95 57 52 c57 52 77 64 70 41z
m389 -120 c-2 -24 -4 -5 -4 42 0 47 2 66 4 43 2 -24 2 -62 0 -85z m-237 108
c0 -3 -4 -8 -10 -11 -5 -3 -10 -1 -10 4 0 6 5 11 10 11 6 0 10 -2 10 -4z m458
-14 c3 -9 -2 -13 -14 -10 -9 1 -19 9 -22 16 -3 9 2 13 14 10 9 -1 19 -9 22
-16z m-1238 -31 c0 -18 -18 -21 -30 -6 -10 13 -9 15 9 15 11 0 21 -4 21 -9z
m408 -38 c-4 -24 -38 -26 -38 -2 0 13 7 19 21 19 14 0 19 -5 17 -17z m-294 -8
c-15 -11 -16 -17 -6 -23 10 -7 10 -11 -3 -22 -12 -10 -19 -10 -27 -2 -9 9 -6
18 12 37 13 14 28 25 34 25 5 0 1 -7 -10 -15z m1178 -65 c5 0 7 -4 4 -8 -2 -4
2 -52 9 -106 14 -101 12 -126 -10 -126 -9 0 -15 27 -20 95 -4 53 -11 92 -16
89 -6 -3 -7 -44 -3 -96 5 -60 4 -89 -3 -85 -5 4 -13 51 -16 105 -4 54 -9 120
-12 148 l-4 49 12 -47 c18 -70 27 -69 28 3 l1 64 11 -42 c5 -24 14 -43 19 -43z
m-1475 11 c6 -40 5 -41 -26 -41 -36 0 -39 13 -14 65 20 42 32 34 40 -24z m183
41 c0 -10 -7 -19 -15 -19 -8 0 -15 9 -15 19 0 10 7 18 15 18 8 0 15 -8 15 -18z
m1174 -41 c36 -37 41 -48 47 -108 13 -116 12 -144 -8 -141 -28 5 -33 18 -33
94 0 69 -2 73 -42 125 l-43 54 43 -33 c23 -19 45 -45 48 -60 10 -44 12 -48 13
-20 1 18 -16 46 -51 89 -56 67 -38 67 26 0z m143 -3 c-2 -13 -4 -5 -4 17 -1
22 1 32 4 23 2 -10 2 -28 0 -40z m-1401 0 c1 -13 -1 -27 -4 -33 -6 -10 -19 27
-21 60 -1 28 22 2 25 -27z m265 -54 c-12 -76 -31 -109 -31 -53 0 41 31 150 37
132 3 -7 0 -43 -6 -79z m-140 50 c-12 -15 -21 -38 -21 -51 0 -14 -4 -22 -10
-18 -14 9 -3 45 23 73 28 30 33 28 8 -4z m60 -28 c-27 -28 -31 -39 -32 -91
l-1 -60 -8 54 c-5 30 -6 60 -3 67 2 6 0 15 -6 19 -7 3 -11 -3 -12 -17 -1 -18
-2 -19 -6 -5 -6 22 33 68 52 61 7 -3 16 0 20 5 3 6 11 8 17 5 5 -4 -3 -20 -21
-38z m196 -38 c-2 -18 -4 -6 -4 27 0 33 2 48 4 33 2 -15 2 -42 0 -60z m596 75
c-7 -2 -21 -2 -30 0 -10 3 -4 5 12 5 17 0 24 -2 18 -5z m171 -8 c3 -8 1 -15
-4 -15 -6 0 -10 7 -10 15 0 8 2 15 4 15 2 0 6 -7 10 -15z m-661 -12 c-7 -2
-19 -2 -25 0 -7 3 -2 5 12 5 14 0 19 -2 13 -5z m502 -40 c3 -21 10 -56 16 -78
5 -22 11 -46 11 -54 1 -8 10 -16 20 -19 11 -3 17 -10 14 -18 -3 -8 0 -14 6
-14 7 0 4 -6 -5 -12 -15 -11 -16 -20 -7 -63 17 -84 24 -212 11 -219 -7 -5 -11
2 -11 18 0 14 -5 28 -10 31 -7 4 -10 -6 -8 -29 1 -19 0 -38 -3 -41 -4 -3 -9
36 -12 87 -3 51 -11 117 -17 146 -12 52 -12 52 -51 52 -21 0 -39 5 -39 10 0 6
6 10 13 10 9 0 9 2 0 8 -18 11 -2 30 31 36 44 8 44 16 0 16 -31 1 -36 3 -21
11 9 5 22 7 27 4 6 -4 10 7 10 24 0 23 -4 29 -15 25 -8 -4 -15 -1 -15 5 0 6 8
12 18 12 16 1 16 2 0 6 -10 2 -18 13 -18 24 0 11 -7 19 -17 20 -15 0 -15 2 2
8 11 5 26 6 33 4 6 -3 12 0 12 5 0 6 -8 13 -17 15 -11 3 -8 5 9 6 24 1 28 -3
33 -36z m-512 20 c-7 -2 -19 -2 -25 0 -7 3 -2 5 12 5 14 0 19 -2 13 -5z m697
-18 c0 -3 -9 -5 -20 -5 -11 0 -20 7 -20 15 0 13 4 14 20 5 11 -6 20 -13 20
-15z m237 -27 c-2 -13 -4 -5 -4 17 -1 22 1 32 4 23 2 -10 2 -28 0 -40z m-1492
7 c-3 -11 -13 -58 -21 -105 -9 -47 -17 -86 -18 -87 -7 -7 -57 157 -51 166 8
15 32 14 37 -1 5 -14 38 -4 38 12 0 5 -18 10 -40 10 -37 0 -49 8 -34 23 3 3
26 5 51 4 39 -2 43 -4 38 -22z m568 18 c-7 -2 -19 -2 -25 0 -7 3 -2 5 12 5 14
0 19 -2 13 -5z m-301 -20 c0 -5 2 -19 3 -33 1 -14 12 -45 23 -69 16 -33 20
-54 16 -83 -4 -21 -9 -36 -12 -34 -2 3 -15 36 -28 73 -24 70 -32 153 -14 153
6 0 11 -3 12 -7z m1001 -20 c5 -26 -20 -129 -29 -120 -3 3 -7 27 -10 53 -2 27
-7 59 -9 72 -4 18 -1 22 19 22 18 0 25 -7 29 -27z m-475 -94 c1 8 4 12 6 10 3
-3 0 -24 -6 -49 -10 -36 -13 -40 -19 -23 -4 12 -5 56 -1 99 l7 79 6 -65 c3
-36 6 -59 7 -51z m-591 -66 c-2 -32 -3 -6 -3 57 0 63 1 89 3 58 2 -32 2 -84 0
-115z m-23 128 c3 -4 -8 -8 -23 -7 -16 1 -27 4 -24 9 6 10 41 9 47 -2z m1045
-129 c7 -68 15 -131 18 -140 4 -12 3 -14 -4 -7 -11 10 -27 108 -39 225 -4 42
-3 61 3 55 6 -5 15 -66 22 -133z m-1572 96 c-3 -8 -6 -5 -6 6 -1 11 2 17 5 13
3 -3 4 -12 1 -19z m518 2 c20 0 15 -49 -6 -55 -11 -4 -16 -11 -13 -18 4 -7 4
-9 0 -5 -4 3 -8 10 -8 15 0 4 -7 17 -14 28 -16 22 -19 49 -5 40 5 -3 13 0 17
7 6 9 9 9 12 0 2 -7 9 -12 17 -12z m865 10 c0 -5 -2 -10 -4 -10 -3 0 -8 5 -11
10 -3 6 -1 10 4 10 6 0 11 -4 11 -10z m-480 -10 c0 -5 -4 -10 -10 -10 -5 0
-10 5 -10 10 0 6 5 10 10 10 6 0 10 -4 10 -10z m-93 -67 c-2 -16 -4 -5 -4 22
0 28 2 40 4 28 2 -13 2 -35 0 -50z m-822 -13 c-4 -23 -9 -39 -12 -36 -3 2 -2
23 2 46 4 23 9 39 12 36 3 -2 2 -23 -2 -46z m43 7 c2 -28 -1 -37 -12 -37 -12
0 -16 11 -16 41 0 52 24 48 28 -4z m51 3 c1 27 4 31 11 20 9 -13 10 -13 11 0
1 8 4 2 8 -15 7 -32 -2 -45 -31 -45 -15 0 -18 8 -17 43 l2 42 7 -40 7 -40 2
35z m824 13 c-7 -2 -19 -2 -25 0 -7 3 -2 5 12 5 14 0 19 -2 13 -5z m0 -20 c-7
-2 -19 -2 -25 0 -7 3 -2 5 12 5 14 0 19 -2 13 -5z m-106 -65 c-3 -7 -5 -2 -5
12 0 14 2 19 5 13 2 -7 2 -19 0 -25z m945 -14 c-14 -83 -65 -164 -112 -179
-15 -5 -17 -13 -13 -44 3 -21 0 -47 -6 -57 -9 -16 -10 -14 -11 16 0 44 -20 80
-20 38 0 -16 -4 -28 -10 -28 -12 0 -13 120 -1 139 11 18 31 5 31 -20 0 -58 91
34 111 112 7 27 18 48 23 46 6 -2 10 -13 8 -23z m-839 -1 c-7 -2 -21 -2 -30 0
-10 3 -4 5 12 5 17 0 24 -2 18 -5z m-586 -25 c-3 -8 -6 -5 -6 6 -1 11 2 17 5
13 3 -3 4 -12 1 -19z m-33 -5 c3 -10 2 -31 -3 -48 l-9 -30 -1 32 c-1 17 -4 38
-7 47 -3 9 -1 16 4 16 6 0 13 -8 16 -17z m343 -5 c-3 -8 -6 -5 -6 6 -1 11 2
17 5 13 3 -3 4 -12 1 -19z m-239 -95 c-4 -60 -9 -118 -11 -129 -3 -19 2 -23
52 -29 96 -12 104 -24 17 -24 l-79 -1 7 -87 c16 -222 17 -229 6 -205 -5 13
-13 86 -16 162 -5 103 -11 140 -21 144 -17 7 -17 26 1 26 15 0 22 36 32 163 4
48 10 87 13 87 4 0 3 -48 -1 -107z m762 90 c0 -5 10 -42 21 -83 11 -41 24
-120 29 -175 5 -55 13 -119 16 -142 5 -34 3 -43 -8 -43 -11 0 -18 26 -27 113
-10 95 -21 151 -58 315 -4 16 -1 22 11 22 9 0 16 -3 16 -7z m-843 -35 c-3 -7
-5 -2 -5 12 0 14 2 19 5 13 2 -7 2 -19 0 -25z m802 -20 c16 -70 25 -198 13
-178 -9 14 -32 114 -46 198 -9 55 19 38 33 -20z m-102 -10 c-3 -8 -6 -5 -6 6
-1 11 2 17 5 13 3 -3 4 -12 1 -19z m10 -40 c-3 -8 -6 -5 -6 6 -1 11 2 17 5 13
3 -3 4 -12 1 -19z m10 -50 c-3 -8 -6 -5 -6 6 -1 11 2 17 5 13 3 -3 4 -12 1
-19z m-462 -38 c-3 -11 -3 -25 2 -32 4 -7 6 -41 4 -75 -2 -44 2 -68 14 -86 10
-16 19 -57 22 -103 5 -69 4 -77 -10 -71 -9 3 -19 2 -22 -3 -9 -14 -48 -12 -69
3 -17 13 -17 18 3 123 11 60 23 132 26 159 6 49 23 105 32 105 2 0 2 -9 -2
-20z m68 -78 c-3 -28 -10 -49 -14 -46 -10 6 -12 58 -3 92 11 41 24 8 17 -46z
m24 -54 c-2 -18 -4 -6 -4 27 0 33 2 48 4 33 2 -15 2 -42 0 -60z m-482 -68 c8
-41 21 -92 27 -113 6 -20 9 -39 7 -41 -2 -2 -26 -7 -53 -11 l-48 -8 7 79 c3
44 9 89 12 102 3 13 1 22 -7 22 -7 0 -6 6 4 16 9 8 16 32 17 52 l1 37 8 -30
c5 -16 16 -64 25 -105z m762 88 c-3 -7 -5 -2 -5 12 0 14 2 19 5 13 2 -7 2 -19
0 -25z m35 -139 c15 -57 28 -107 28 -110 0 -9 -84 -10 -99 0 -11 7 -11 20 0
79 7 39 16 68 19 64 11 -15 32 -13 26 3 -3 9 -6 29 -6 43 0 21 -2 24 -10 12
-8 -13 -10 -12 -10 3 0 11 6 17 13 15 6 -3 24 -51 39 -109z m-378 85 c3 -8 2
-12 -4 -9 -6 3 -10 10 -10 16 0 14 7 11 14 -7z m-546 -11 c-15 -2 -42 -2 -60
0 -18 2 -6 4 27 4 33 0 48 -2 33 -4z m262 -3 c-8 -5 -40 -9 -70 -8 l-55 1 60
7 c33 4 65 7 70 8 6 1 3 -3 -5 -8z m-262 -17 c-10 -2 -28 -2 -40 0 -13 2 -5 4
17 4 22 1 32 -1 23 -4z m235 -10 c-7 -2 -19 -2 -25 0 -7 3 -2 5 12 5 14 0 19
-2 13 -5z m385 -143 l0 -35 -9 40 c-4 22 -7 63 -7 90 l1 50 7 -55 c5 -30 8
-71 8 -90z m602 101 c0 -49 9 -61 46 -61 27 0 34 -4 34 -20 0 -17 -7 -20 -49
-20 -28 0 -53 5 -56 10 -9 14 5 120 16 120 5 0 9 -13 9 -29z m-105 -27 c-8 -9
-22 -13 -31 -10 -22 8 -7 26 22 26 23 0 24 -1 9 -16z m-348 -20 c-3 -3 -12 -4
-19 -1 -8 3 -5 6 6 6 11 1 17 -2 13 -5z"/>
<path d="M1475 1530 c4 -6 11 -8 16 -5 14 9 11 15 -7 15 -8 0 -12 -5 -9 -10z"/>
<path d="M1456 1485 c4 -8 14 -15 23 -15 13 0 13 2 2 9 -11 7 -11 9 0 14 8 3
5 6 -8 6 -16 1 -21 -3 -17 -14z"/>
<path d="M1772 760 c0 -19 2 -27 5 -17 2 9 2 25 0 35 -3 9 -5 1 -5 -18z"/>
<path d="M631 936 c-8 -10 -9 -16 -1 -21 5 -3 10 -5 11 -3 4 18 7 38 4 38 -1
0 -8 -6 -14 -14z"/>
<path d="M1430 890 c0 -5 5 -10 11 -10 5 0 7 5 4 10 -3 6 -8 10 -11 10 -2 0
-4 -4 -4 -10z"/>
<path d="M1510 532 c0 -17 4 -34 10 -37 6 -4 7 6 3 27 -8 44 -13 48 -13 10z"/>
<path d="M1891 1668 c0 -14 -4 -35 -7 -45 -5 -17 -5 -17 6 0 6 10 9 30 7 45
l-4 27 -2 -27z"/>
<path d="M1820 1566 c0 -2 7 -7 16 -10 8 -3 12 -2 9 4 -6 10 -25 14 -25 6z"/>
<path d="M1845 1480 c-3 -5 1 -10 9 -10 9 0 16 5 16 10 0 6 -4 10 -9 10 -6 0
-13 -4 -16 -10z"/>
<path d="M1798 248 c-3 -7 2 -19 9 -27 12 -11 12 -15 1 -22 -10 -7 -10 -9 2
-10 10 0 8 -3 -5 -8 -12 -5 -23 -4 -27 3 -4 6 -8 -4 -8 -21 0 -22 -5 -33 -14
-33 -8 0 -16 -7 -20 -15 -4 -12 5 -15 49 -15 48 0 55 -2 55 -20 0 -18 -7 -20
-60 -20 -56 0 -61 -2 -70 -26 -6 -14 -10 -27 -10 -30 0 -2 50 -4 110 -4 l110
0 0 119 0 118 -43 6 c-24 3 -50 9 -59 12 -9 4 -18 1 -20 -7z"/>
</g>
</svg>
